<svg id="Layer_1" data-name="Layer 1" xmlns="http://www.w3.org/2000/svg" viewBox="0 0 481.89 77.24"><defs><style>.cls-1{fill:#fff;}</style></defs><title>logo-mono</title><path class="cls-1" d="M59.15,2.27c-15.54,0-31.75,3.49-48.11,8a8.34,8.34,0,0,0-5.18,3.46A13.26,13.26,0,0,0,4.21,18.6c-1.59,8.91-1.4,17.65-1.07,27.34.08,2.22.41,4.85,1.44,6.45a7.35,7.35,0,0,0,5.15,3Q14,56,18.25,56.42l-.63,17.5a3.74,3.74,0,0,0,1.43,3.21,4.49,4.49,0,0,0,2.46.9,4.92,4.92,0,0,0,4.77-2.53C30.69,67,33.46,63.25,39,57.61c14.4.35,27-.45,41.2-1.5,5-.13,8.48-4.24,9.4-7.53,2.72-8.51,3.15-19,3.44-29.64.12-4.21-1.34-8.34-3.92-10.53-2.46-2-5.44-2.71-8.17-3.45A104.23,104.23,0,0,0,59.15,2.27Zm20.7,6.66c2.73.74,5.14,1.45,6.65,2.68C89,14.31,89,16.1,88.92,19c-.29,10.3-.78,20.3-3.11,27.87-1,2.83-2.75,4.84-6,5.14-14.5,1.08-27.08,1.9-41.65,1.49a2.06,2.06,0,0,0-1.54.61C30.46,60.3,27.33,64.6,22.66,73.58a.75.75,0,0,1-.63.35.3.3,0,0,1-.29-.3l.63-19a2.11,2.11,0,0,0-1.82-2.11c-3.4-.32-6.8-.74-10.18-1.25-1.46-.22-2-.62-2.4-1.21a10.26,10.26,0,0,1-.73-4.28c-.33-9.61-.49-18,1-26.35A11.71,11.71,0,0,1,9.32,15.9c.81-1.27,2-1.46,3.3-1.8,16-4.42,31.66-7.73,46.4-7.74C66.25,6.63,73.83,7.35,79.85,8.93ZM24.58,25.2a7.08,7.08,0,0,0-.28,8.63,5.87,5.87,0,0,0,4,2.49c2.2.18,3.59-.7,5.09-1.73a7.16,7.16,0,0,0,.93-9.47,5.75,5.75,0,0,0-4.46-2.49,6.64,6.64,0,0,0-5.24,2.56ZM48.42,23a6.6,6.6,0,0,0-5.05,3.23,6.78,6.78,0,0,0-1,6.53c1.93,4.43,8.6,4.38,11.26-.12a6.28,6.28,0,0,0,0-6.15,6,6,0,0,0-4.29-3.42A4.39,4.39,0,0,0,48.42,23Zm19.36.42a7.45,7.45,0,0,0-2,.22,6.42,6.42,0,0,0-4.54,6.91,6.8,6.8,0,0,0,2.43,4.65,7,7,0,0,0,5.8,1.24,6.23,6.23,0,0,0,4.67-4.57,6.48,6.48,0,0,0-.83-5.67,7,7,0,0,0-5.48-2.78ZM29.64,26.72a1.44,1.44,0,0,1,1.28.74,3.32,3.32,0,0,1-.26,4c-.9.78-1.46.85-1.85.8a1.76,1.76,0,0,1-1.16-.83,3,3,0,0,1,2-4.74Zm19.07.45a3.29,3.29,0,0,1,1.34,1.28,2.07,2.07,0,0,1,.1,2.14c-1.16,2-3.63,1.44-4,.58a3.81,3.81,0,0,1,.64-2.65c.68-1,1.52-1.41,1.92-1.35ZM70,28.67a3.67,3.67,0,0,1,.19,2.18,1.9,1.9,0,0,1-1.57,1.63,2.64,2.64,0,0,1-2.4-.41,2.8,2.8,0,0,1-.93-1.86c-.18-1.85.49-2.28,1.54-2.56A3.17,3.17,0,0,1,70,28.67Z" transform="translate(-2.92 -0.98)"/><path class="cls-1" d="M118.77,10.55a2.36,2.36,0,0,1,.58-1.41,1.75,1.75,0,0,1,1.41-.63h13.73a2.38,2.38,0,0,1,1.43.58,1.76,1.76,0,0,1,.74,1.46V32.46h23V10.55a2,2,0,0,1,.58-1.43,2,2,0,0,1,1.5-.61h13.55a2.82,2.82,0,0,1,1.61.47,1.64,1.64,0,0,1,.7,1.48V75.12a1.84,1.84,0,0,1-.61,1.52,2.32,2.32,0,0,1-1.57.51H161.71a2.2,2.2,0,0,1-1.5-.51,1.92,1.92,0,0,1-.58-1.52V48.87h-23V75.12a1.87,1.87,0,0,1-.62,1.5,2.5,2.5,0,0,1-1.69.53H120.76c-1.29,0-2-.6-2-1.8ZM245.23,76.37A2.91,2.91,0,0,1,244,77a7.6,7.6,0,0,1-1.27.14h-7a3.06,3.06,0,0,1-1.44-.31,3.21,3.21,0,0,1-1-.8,5.23,5.23,0,0,1-.69-1.16,10.59,10.59,0,0,1-.46-1.34l-1.43-5.92a23.83,23.83,0,0,1-2,3.26,17.28,17.28,0,0,1-3.36,3.42A18.27,18.27,0,0,1,220.46,77,17.8,17.8,0,0,1,214,78.08,21.75,21.75,0,0,1,197.1,70.5a25.45,25.45,0,0,1-4.7-8.21,29.64,29.64,0,0,1-1.66-10V22a4,4,0,0,1,.76-2.66,3,3,0,0,1,2.43-.9h10.68a4.1,4.1,0,0,1,2.72.67,3.48,3.48,0,0,1,.74,2.61V51.82a8.21,8.21,0,0,0,.9,3.77,11.09,11.09,0,0,0,2.39,3.14,11.23,11.23,0,0,0,3.35,2.15,9.6,9.6,0,0,0,3.81.79,8.37,8.37,0,0,0,3.44-.79,12.82,12.82,0,0,0,3.28-2.1,11.15,11.15,0,0,0,2.48-3.1,7.69,7.69,0,0,0,1-3.76v-30a4.41,4.41,0,0,1,.3-1.57,2.52,2.52,0,0,1,.9-1.2,4.1,4.1,0,0,1,1.13-.51,5.08,5.08,0,0,1,1.23-.14h10.44a3.74,3.74,0,0,1,2.87,1,3.74,3.74,0,0,1,.88,2.59V73.73a3.4,3.4,0,0,1-.39,1.62A3,3,0,0,1,245,76.51ZM298.9,70c-.83.83-1.75,1.73-2.75,2.68a26.58,26.58,0,0,1-3.3,2.68A18.58,18.58,0,0,1,289,77.41a12.25,12.25,0,0,1-4.48.81,28.18,28.18,0,0,1-11.58-2.36,27.7,27.7,0,0,1-9.11-6.45,29.71,29.71,0,0,1-6-9.64,32.73,32.73,0,0,1-2.15-11.92,32.7,32.7,0,0,1,2.15-12,29.68,29.68,0,0,1,6-9.61,27.65,27.65,0,0,1,9.11-6.43,28.49,28.49,0,0,1,11.58-2.33,14,14,0,0,1,4.64.74A16.93,16.93,0,0,1,293,20.16a20.64,20.64,0,0,1,3.19,2.61c1,1,1.89,1.92,2.75,2.85V4.49A3.63,3.63,0,0,1,299.8,2a3.42,3.42,0,0,1,2.71-1H312.9a3.59,3.59,0,0,1,1.28.25A4.31,4.31,0,0,1,315.4,2a3.73,3.73,0,0,1,.9,1.11,3,3,0,0,1,.35,1.43V73.6q0,3.56-3.75,3.56h-9a3.47,3.47,0,0,1-1.44-.24,2.23,2.23,0,0,1-.85-.67,4.68,4.68,0,0,1-.63-1.11c-.22-.52-.45-1-.69-1.54L298.9,70ZM272.32,47.85a17.11,17.11,0,0,0,.95,5.71,13.61,13.61,0,0,0,2.7,4.6,12.84,12.84,0,0,0,9.71,4.2,14.61,14.61,0,0,0,5.57-1.06,14.07,14.07,0,0,0,4.55-2.94,14.65,14.65,0,0,0,4.44-9.86v-.65a14.54,14.54,0,0,0-1.11-5.64,15,15,0,0,0-3.07-4.71,14.68,14.68,0,0,0-4.62-3.22,14.1,14.1,0,0,0-5.76-1.17A12.5,12.5,0,0,0,276,37.5a14.45,14.45,0,0,0-2.7,4.71,16.66,16.66,0,0,0-.95,5.64Zm98,22.14c-.83.83-1.75,1.73-2.75,2.68a26.58,26.58,0,0,1-3.3,2.68,18.51,18.51,0,0,1-3.88,2.06,12.34,12.34,0,0,1-4.49.81,28.18,28.18,0,0,1-11.58-2.36,27.56,27.56,0,0,1-9.1-6.45,29.9,29.9,0,0,1-6-9.64,32.73,32.73,0,0,1-2.15-11.92,32.7,32.7,0,0,1,2.15-12,29.7,29.7,0,0,1,6-9.61,27.36,27.36,0,0,1,9.1-6.43,28.49,28.49,0,0,1,11.58-2.33,14,14,0,0,1,4.65.74,17.06,17.06,0,0,1,3.83,1.89,20.64,20.64,0,0,1,3.19,2.61c1,1,1.89,1.92,2.75,2.85V4.49a3.63,3.63,0,0,1,.9-2.49,3.45,3.45,0,0,1,2.71-1h10.4a3.58,3.58,0,0,1,1.27.25,4.18,4.18,0,0,1,1.22.72,3.92,3.92,0,0,1,.91,1.11,3,3,0,0,1,.34,1.43V73.6q0,3.56-3.74,3.56h-9.06a3.38,3.38,0,0,1-1.43-.24,2.26,2.26,0,0,1-.86-.67,4.32,4.32,0,0,1-.62-1.11c-.22-.52-.45-1-.7-1.54L370.31,70ZM343.73,47.85a17.11,17.11,0,0,0,.95,5.71,13.63,13.63,0,0,0,2.71,4.6,12.75,12.75,0,0,0,4.23,3.07,12.9,12.9,0,0,0,5.47,1.13,14.61,14.61,0,0,0,5.57-1.06,14.22,14.22,0,0,0,4.56-2.94A14.52,14.52,0,0,0,370.33,54a14.32,14.32,0,0,0,1.32-5.45v-.65a14.54,14.54,0,0,0-1.11-5.64,14.86,14.86,0,0,0-3.07-4.71,14.68,14.68,0,0,0-4.62-3.22,14.1,14.1,0,0,0-5.76-1.17,12.59,12.59,0,0,0-5.47,1.17,12.8,12.8,0,0,0-4.23,3.22,14.48,14.48,0,0,0-2.71,4.71,16.9,16.9,0,0,0-.94,5.64ZM400.36,4.54A4.09,4.09,0,0,1,401.1,2a2.92,2.92,0,0,1,2.54-1H415a2.12,2.12,0,0,1,1,.25,3.36,3.36,0,0,1,.95.72,4,4,0,0,1,.74,1.11,3.36,3.36,0,0,1,.3,1.43V73.6a3.4,3.4,0,0,1-1,2.65,3.68,3.68,0,0,1-2.57.9H403.64a3.12,3.12,0,0,1-2.54-.9,4.06,4.06,0,0,1-.74-2.65ZM478.2,70.13A31.12,31.12,0,0,1,469.05,76a28,28,0,0,1-10.77,2.1,31.43,31.43,0,0,1-21.87-8.71,30.76,30.76,0,0,1-6.75-9.64,29.13,29.13,0,0,1-2.49-12.07,31.17,31.17,0,0,1,3.81-15,30.36,30.36,0,0,1,4.44-6.12,28.11,28.11,0,0,1,5.85-4.79,28.57,28.57,0,0,1,7-3.09,28.1,28.1,0,0,1,8-1.11,27.27,27.27,0,0,1,7.44,1,28.75,28.75,0,0,1,6.77,2.86,29.28,29.28,0,0,1,5.8,4.44,30.1,30.1,0,0,1,4.53,5.66,27.79,27.79,0,0,1,2.94,6.56,25.21,25.21,0,0,1,1,7.19c0,1.6,0,2.91-.07,3.93a4.49,4.49,0,0,1-.72,2.43,3.48,3.48,0,0,1-2.15,1.24,20.36,20.36,0,0,1-4.41.35H444.18a11.27,11.27,0,0,0,5.13,8.11A12.89,12.89,0,0,0,453.24,63a16.23,16.23,0,0,0,3.93.51,17.63,17.63,0,0,0,3.41-.35,23.38,23.38,0,0,0,3.4-.92,19.3,19.3,0,0,0,3-1.34,9.7,9.7,0,0,0,2.19-1.6,10.44,10.44,0,0,1,1.27-.9,2.31,2.31,0,0,1,1.14-.3,2.16,2.16,0,0,1,1.22.42,9,9,0,0,1,1.41,1.2l4.9,5.54a3.17,3.17,0,0,1,.65,1.09,3.7,3.7,0,0,1,.14,1,2.57,2.57,0,0,1-.51,1.6,5.83,5.83,0,0,1-1.2,1.18ZM456,31.63a8.82,8.82,0,0,0-3.49.71,13.09,13.09,0,0,0-3.16,1.92A16.37,16.37,0,0,0,446.65,37a17.32,17.32,0,0,0-1.92,3.09h23.62a27.3,27.3,0,0,0-2.1-3.32,14,14,0,0,0-2.59-2.69,11.31,11.31,0,0,0-3.33-1.8A13.41,13.41,0,0,0,456,31.63Z" transform="translate(-2.92 -0.98)"/></svg>