<?xml version="1.0" encoding="utf-8"?>
<!-- Generator: Adobe Illustrator 23.0.3, SVG Export Plug-In . SVG Version: 6.00 Build 0)  -->
<svg version="1.1" id="Layer_1" xmlns="http://www.w3.org/2000/svg" xmlns:xlink="http://www.w3.org/1999/xlink" x="0px" y="0px"
	 viewBox="0 0 50 50" style="enable-background:new 0 0 50 50;" xml:space="preserve">
<style type="text/css">
	.st0{clip-path:url(#SVGID_2_);}
	.st1{clip-path:url(#SVGID_4_);}
	.st2{clip-path:url(#SVGID_4_);fill:#FFFFFF;}
</style>
<g id="ins-vec_1_">
	<g>
		<defs>
			<rect id="SVGID_1_" width="50" height="50"/>
		</defs>
		<clipPath id="SVGID_2_">
			<use xlink:href="#SVGID_1_"  style="overflow:visible;"/>
		</clipPath>
		<g class="st0">
			<defs>
				<rect id="SVGID_3_" width="50" height="50"/>
			</defs>
			<clipPath id="SVGID_4_">
				<use xlink:href="#SVGID_3_"  style="overflow:visible;"/>
			</clipPath>
			<path class="st1" d="M50,25c0,13.81-11.19,25-25,25S0,38.81,0,25S11.19,0,25,0S50,11.19,50,25"/>
			<path class="st2" d="M33.01,12.64H16.99c-2.58,0-4.69,2.11-4.69,4.69v15.34c0,2.58,2.11,4.69,4.69,4.69h16.02
				c2.58,0,4.69-2.11,4.69-4.69V17.33C37.7,14.75,35.59,12.64,33.01,12.64 M29.07,15.42h4.67v4.67h-4.67V15.42z M29.34,25.45
				c0,2.4-1.94,4.34-4.34,4.34s-4.34-1.95-4.34-4.34c0-1.36,0.62-2.58,1.61-3.37c0.74-0.61,1.7-0.97,2.73-0.97
				c1.03,0,1.99,0.36,2.73,0.97C28.72,22.87,29.34,24.09,29.34,25.45 M35.11,32.16c0,1.62-1.33,2.95-2.95,2.95H17.84
				c-1.62,0-2.95-1.33-2.95-2.95V22.07h4.18c-0.58,1-0.9,2.15-0.9,3.37c0,3.77,3.05,6.84,6.83,6.84c3.78,0,6.84-3.06,6.84-6.84
				c0-1.23-0.32-2.38-0.9-3.37h4.17V32.16z"/>
		</g>
	</g>
</g>
</svg>
